<svg width="250" height="35" viewBox="0 0 250 35" fill="none" xmlns="http://www.w3.org/2000/svg">
<path d="M74.7774 8.09115H71.3005V2.74704C71.3005 2.36931 71.2147 2.04309 71.043 1.77696C70.8756 1.51512 70.5279 1.20605 69.8411 1.20605C69.678 1.20605 69.4977 1.23611 69.2659 1.30908C69.1028 1.36059 68.9483 1.4121 68.7937 1.4679C68.6349 1.528 68.4975 1.5795 68.3688 1.6396C68.3173 1.66106 68.2615 1.68681 68.2057 1.72115C68.0983 1.77266 67.9953 1.82847 67.9095 1.89715C67.6004 2.13323 67.4287 2.47662 67.4287 2.86723V8.09544H64.9305C64.527 8.09544 64.2094 8.18558 63.9518 8.37445C63.7286 8.54186 63.4668 8.86808 63.4668 9.4819V10.3876C63.4668 10.9714 63.7072 11.3019 63.9046 11.4736C64.1622 11.7011 64.5056 11.8127 64.9305 11.8127H67.4287V28.7507C67.4287 29.738 67.5918 30.6008 67.9095 31.3176C68.2357 32.0516 68.6864 32.6568 69.2573 33.1247C69.8153 33.5797 70.4678 33.9145 71.1975 34.1163C71.8843 34.3094 72.6226 34.4039 73.3909 34.4039C73.4811 34.4039 73.597 34.3996 73.7472 34.3953C73.9489 34.3867 74.1464 34.3524 74.3396 34.2923C74.5671 34.2236 74.7688 34.1206 74.9405 33.9875C75.2324 33.76 75.3912 33.4295 75.3912 33.056V32.6525C75.3912 32.5495 75.3869 32.4293 75.3698 32.3263C75.3698 32.146 75.3483 31.9743 75.3182 31.8112C75.2539 31.4764 75.0779 31.1931 74.8032 30.9828C74.5928 30.824 74.331 30.7081 73.9919 30.6394C73.7215 30.5836 73.3738 30.5535 72.9273 30.5535H72.4852C72.2448 30.5535 72.0646 30.5063 71.9573 30.4162C71.8027 30.2874 71.6825 30.0985 71.5881 29.8539C71.4765 29.5491 71.3992 29.18 71.3606 28.755C71.3177 28.2785 71.2962 27.7677 71.2962 27.2355V11.817H74.7731C75.6616 11.817 76.2368 11.2289 76.2368 10.3146V9.54629C76.2411 8.67063 75.6531 8.09115 74.7774 8.09115Z" fill="#272D38"/>
<path d="M97.4801 9.82978C96.9736 9.43487 96.4628 9.0872 95.9649 8.79531C95.4455 8.49484 94.9004 8.24157 94.3424 8.04841C93.7886 7.85525 93.192 7.70502 92.5739 7.60629C91.9601 7.51186 91.2947 7.46035 90.5908 7.46035C89.6722 7.46035 88.8008 7.59771 87.9895 7.86814C87.1997 8.13427 86.47 8.48625 85.8261 8.9155C85.3454 9.23314 84.9076 9.58512 84.5169 9.96286V8.99706C84.5169 8.58927 84.3796 8.22012 84.1177 7.93252C83.8344 7.62347 83.4438 7.45605 82.976 7.45605H82.1861C82.1432 7.45605 82.1003 7.46035 82.0617 7.46035C82.0273 7.45606 81.993 7.45605 81.9544 7.45605C81.1388 7.45605 80.5894 7.99691 80.5894 8.80389V32.9704C80.5894 33.8246 81.1774 34.3955 82.0531 34.3955H83.0747C83.9375 34.3955 84.5212 33.8246 84.5212 32.9704V17.8052C84.5212 16.7878 84.6929 15.865 85.0235 15.0537C85.354 14.2467 85.8133 13.5599 86.3799 13.0062C86.9551 12.4525 87.6333 12.0146 88.3973 11.7099C89.1657 11.4051 90.0027 11.2506 90.8784 11.2506C91.2003 11.2506 91.5394 11.2978 91.8871 11.3879C92.2605 11.4867 92.6383 11.6154 92.9988 11.77C93.3766 11.9331 93.7414 12.1091 94.0848 12.2937C94.4153 12.4739 94.7072 12.6542 94.9433 12.8216C95.188 13.0019 95.3983 13.1264 95.5786 13.2036C95.7932 13.2938 96.0078 13.341 96.2053 13.341C96.5186 13.341 96.7934 13.2294 96.9693 13.0534C97.2484 12.8173 97.5102 12.5641 97.7549 12.3022C98.0081 12.0275 98.3 11.6498 98.3 11.2119C98.3 10.8557 98.1755 10.5252 97.9351 10.2547C97.8021 10.1088 97.6518 9.96714 97.4801 9.82978Z" fill="#272D38"/>
<path d="M123.577 7.46021H122.577C121.723 7.46021 121.152 8.03968 121.152 8.90676V11.6153C120.993 11.4436 120.83 11.2762 120.667 11.1131C119.882 10.349 119.01 9.68799 118.066 9.15143C117.126 8.61058 116.104 8.19422 115.031 7.90662C112.829 7.31856 110.374 7.33573 108.168 7.95813C107.034 8.27577 105.953 8.73936 104.957 9.33172C103.965 9.92408 103.051 10.6323 102.235 11.4479C101.424 12.2592 100.712 13.1735 100.119 14.165C99.5269 15.1566 99.0676 16.2383 98.7456 17.3758C98.428 18.5133 98.2649 19.7109 98.2649 20.9342C98.2649 22.1576 98.428 23.3594 98.7456 24.4969C99.0676 25.6344 99.5226 26.7118 100.106 27.7034C100.69 28.695 101.403 29.6135 102.227 30.4291C103.047 31.2404 103.965 31.9529 104.957 32.5453C105.953 33.1376 107.034 33.6012 108.168 33.9189C109.305 34.2408 110.507 34.4039 111.726 34.4039C112.872 34.4039 113.992 34.258 115.061 33.9704C116.121 33.6828 117.134 33.2707 118.07 32.7384C119.006 32.2062 119.873 31.5494 120.646 30.7897C120.813 30.6223 120.981 30.4549 121.139 30.2789L121.152 32.8801C121.152 33.803 121.77 34.3996 122.732 34.3996H123.522C123.882 34.3996 124.208 34.3009 124.492 34.112C124.861 33.8588 125.063 33.451 125.063 32.9573V8.90676C125.063 8.03968 124.466 7.46021 123.577 7.46021ZM121.268 20.9471C121.268 22.2606 121.011 23.5097 120.504 24.6686C119.989 25.8362 119.285 26.8749 118.414 27.7506C117.542 28.6263 116.504 29.3302 115.336 29.841C113.044 30.8412 110.189 30.8412 107.996 29.8282C106.863 29.3045 105.854 28.5919 105.008 27.7034C104.158 26.8149 103.48 25.7675 102.991 24.5957C102.506 23.4281 102.257 22.1876 102.257 20.9085C102.257 19.6336 102.51 18.4102 103.012 17.2642C103.519 16.1052 104.214 15.075 105.077 14.1951C105.935 13.3194 106.949 12.6111 108.086 12.0918C109.211 11.581 110.413 11.3191 111.657 11.3191H111.709C112.971 11.332 114.194 11.5981 115.336 12.1132C116.495 12.6326 117.525 13.3409 118.396 14.2165C119.268 15.0922 119.976 16.131 120.495 17.2942C121.006 18.4489 121.268 19.6765 121.268 20.9471Z" fill="#272D38"/>
<path d="M165.587 16.2512C165.42 15.0364 165.072 13.8903 164.544 12.8387C164.016 11.7784 163.321 10.847 162.475 10.0615C161.63 9.28024 160.634 8.65354 159.514 8.19854C158.389 7.74354 157.144 7.51175 155.813 7.51175C154.878 7.51175 153.955 7.62765 153.071 7.85515C152.178 8.08694 151.336 8.43463 150.564 8.89821C149.791 9.36609 149.083 9.95416 148.465 10.6581C148.177 10.9843 147.915 11.3406 147.675 11.7184C146.95 10.6324 146.052 9.72236 144.992 9.0141C143.503 8.01396 141.687 7.50746 139.609 7.50746C138.734 7.50746 137.914 7.60618 137.176 7.80363C136.437 8.00108 135.729 8.29727 135.081 8.67929C134.446 9.05703 133.845 9.51632 133.3 10.0486C133.295 10.0529 133.291 10.0572 133.287 10.0615V8.99265C133.287 8.58057 133.149 8.21571 132.887 7.92812C132.608 7.61906 132.214 7.45166 131.746 7.45166H130.956C130.57 7.45166 130.226 7.56325 129.934 7.77788C129.574 8.04401 129.376 8.45609 129.376 8.93684V32.9488C129.376 33.8116 129.964 34.3954 130.84 34.3954H131.84C132.694 34.3954 133.265 33.8159 133.265 32.9488L133.269 27.0209C133.282 26.9523 133.287 26.8836 133.287 26.8149V17.0539C133.33 16.2168 133.531 15.4485 133.883 14.7703C134.244 14.0749 134.712 13.474 135.274 12.9803C135.836 12.4867 136.489 12.0961 137.21 11.8257C138.639 11.2891 140.416 11.2934 141.743 11.83C142.43 12.1047 143.039 12.4824 143.554 12.946C144.069 13.4096 144.494 13.959 144.816 14.5728C145.142 15.1909 145.361 15.8606 145.464 16.5602C145.524 16.9637 145.563 17.3629 145.58 17.7535C145.597 18.1699 145.606 18.5777 145.606 18.9769V32.7428C145.606 33.2364 145.718 33.6141 145.941 33.8932C146.207 34.228 146.623 34.3997 147.181 34.3997H147.915C148.366 34.3997 148.761 34.2408 149.061 33.9447C149.267 33.7386 149.516 33.3566 149.516 32.7213V18.9726C149.516 18.0497 149.589 17.1569 149.735 16.3156C149.847 15.6159 150.079 14.9549 150.422 14.3625C150.77 13.7616 151.208 13.2379 151.731 12.8043C152.251 12.3665 152.852 12.0231 153.521 11.7741C154.187 11.5295 154.921 11.4007 155.706 11.4007C156.663 11.4007 157.522 11.581 158.26 11.9373C159.007 12.2978 159.647 12.7743 160.162 13.3538C160.681 13.9418 161.089 14.6243 161.372 15.3884C161.664 16.1653 161.827 16.968 161.861 17.7449V32.7428C161.861 33.2278 161.96 33.597 162.171 33.876C162.428 34.2237 162.849 34.3997 163.415 34.3997H164.141C164.591 34.3997 164.986 34.2408 165.278 33.9447C165.579 33.6442 165.729 33.2278 165.729 32.7041V19.0327C165.729 18.5777 165.72 18.1184 165.708 17.6634C165.695 17.1783 165.652 16.6976 165.587 16.2512Z" fill="#272D38"/>
<path d="M172.519 7.46069H171.501C170.634 7.46069 170.055 8.04017 170.055 8.90725V32.9578C170.055 33.8206 170.652 34.4044 171.54 34.4044H172.536C173.39 34.4044 173.965 33.8249 173.965 32.9578V8.90725C173.965 8.04017 173.386 7.46069 172.519 7.46069Z" fill="#272D38"/>
<path d="M172.956 0.0175781H172.926H171.462L171.398 0.0218748C170.711 0.103431 170.419 0.524087 170.312 0.768757C170.192 1.03489 170.132 1.34395 170.132 1.7088V2.68748C170.132 3.38715 170.505 3.73055 170.724 3.86791C171.003 4.04819 171.381 4.13404 171.883 4.13404H172.574C173.136 4.13404 173.527 4.02243 173.81 3.78635C174.239 3.42578 174.291 2.8463 174.291 2.43851V1.7088C174.291 1.37399 174.239 1.07351 174.136 0.815967C174.029 0.554128 173.742 0.0991347 172.956 0.0175781Z" fill="#272D38"/>
<path d="M199.85 28.0342C199.631 27.811 199.374 27.708 199.103 27.708C198.867 27.708 198.507 27.7852 198.133 28.163C197.987 28.3089 197.755 28.5192 197.433 28.7939C197.146 29.0472 196.738 29.309 196.232 29.5838C195.725 29.8542 195.094 30.0946 194.351 30.3049C193.626 30.5066 192.755 30.6096 191.759 30.6096C190.523 30.6096 189.325 30.3564 188.192 29.8542C187.046 29.3477 186.028 28.648 185.157 27.7766C184.286 26.9053 183.577 25.8708 183.058 24.6989C182.556 23.57 182.298 22.072 182.285 20.7928C182.298 19.5222 182.551 18.3032 183.058 17.1743C183.577 16.0067 184.286 14.968 185.157 14.0966C186.028 13.2252 187.05 12.5256 188.192 12.019C189.325 11.5168 190.523 11.2636 191.759 11.2636C192.755 11.2636 193.626 11.3666 194.351 11.5683C195.094 11.7787 195.725 12.019 196.232 12.2895C196.738 12.5599 197.146 12.826 197.433 13.0793C197.755 13.3583 197.987 13.5686 198.133 13.7146C198.507 14.088 198.867 14.1696 199.103 14.1696C199.378 14.1696 199.631 14.0623 199.85 13.8433L200.674 12.8861C200.979 12.5341 201.129 12.1993 201.129 11.8602C201.129 11.4911 200.988 11.1563 200.721 10.9116C200.631 10.8257 200.528 10.7356 200.4 10.6154L199.816 10.1475C199.425 9.85995 199.004 9.58523 198.567 9.32768C197.927 8.95424 197.24 8.62801 196.519 8.35759C195.798 8.08716 195.043 7.86825 194.261 7.71372C192.343 7.3274 190.226 7.41754 188.299 7.95839C187.166 8.27603 186.084 8.73532 185.097 9.32339C184.11 9.90716 183.187 10.6154 182.367 11.431C181.547 12.2465 180.83 13.1608 180.238 14.1524C179.646 15.1482 179.182 16.2299 178.856 17.3674C178.529 18.5135 178.362 19.7154 178.362 20.9431V20.9473C178.362 22.1707 178.529 23.3769 178.856 24.523C179.182 25.6647 179.65 26.7464 180.238 27.738C180.826 28.7295 181.543 29.6439 182.367 30.4594C183.191 31.275 184.11 31.9832 185.097 32.567C186.088 33.1508 187.17 33.6101 188.299 33.932C190.226 34.4729 192.343 34.563 194.261 34.1767C195.038 34.0221 195.798 33.8075 196.519 33.5328C197.24 33.2624 197.927 32.9319 198.567 32.5627C199.004 32.3052 199.425 32.0304 199.816 31.7429L200.4 31.275C200.533 31.1591 200.631 31.0646 200.721 30.9788C200.988 30.7341 201.129 30.395 201.129 30.0259C201.129 29.6868 200.979 29.352 200.674 29L199.85 28.0342Z" fill="#272D38"/>
<path d="M226.489 7.46021H225.489C224.634 7.46021 224.064 8.03968 224.064 8.90676V11.6153C223.905 11.4436 223.742 11.2762 223.579 11.1131C222.797 10.349 221.922 9.68799 220.982 9.15143C220.037 8.61058 219.016 8.19422 217.947 7.90662C215.749 7.31856 213.294 7.33573 211.083 7.95813C209.95 8.28006 208.868 8.73936 207.872 9.33172C206.885 9.91979 205.971 10.6323 205.155 11.4479C204.344 12.2592 203.632 13.1735 203.039 14.165C202.447 15.1609 201.983 16.2383 201.666 17.3758C201.344 18.5176 201.185 19.7152 201.185 20.9342C201.185 22.1576 201.348 23.3551 201.666 24.4969C201.988 25.6301 202.443 26.7118 203.031 27.7034C203.614 28.695 204.327 29.6135 205.151 30.4291C205.971 31.2404 206.885 31.9529 207.877 32.5453C208.873 33.1376 209.95 33.6012 211.087 33.9189C212.225 34.2365 213.427 34.3996 214.646 34.3996C215.792 34.3996 216.912 34.2537 217.977 33.9661C219.037 33.6785 220.05 33.2664 220.99 32.7341C221.926 32.2019 222.793 31.5451 223.566 30.7854C223.733 30.618 223.9 30.4506 224.059 30.2746L224.072 32.8758C224.072 33.7987 224.69 34.3953 225.652 34.3953H226.442C226.802 34.3953 227.128 34.2966 227.407 34.1077C227.777 33.8545 227.983 33.4467 227.983 32.9531V8.90247C227.974 8.03969 227.377 7.46021 226.489 7.46021ZM224.179 20.9471C224.179 22.2563 223.922 23.5097 223.411 24.6686C222.896 25.8405 222.196 26.8749 221.321 27.7506C220.454 28.6263 219.415 29.3302 218.243 29.841C217.08 30.3518 215.831 30.6051 214.53 30.6051C213.247 30.6051 212.028 30.3433 210.907 29.8282C209.77 29.3045 208.765 28.5919 207.92 27.7034C207.07 26.8149 206.396 25.7675 205.902 24.5957C205.417 23.4281 205.168 22.1919 205.168 20.9085C205.168 19.6336 205.421 18.4102 205.928 17.2642C206.435 16.1095 207.13 15.075 207.993 14.1951C208.851 13.3194 209.864 12.6111 211.002 12.0918C212.126 11.581 213.328 11.3191 214.573 11.3191H214.624C215.886 11.332 217.106 11.5981 218.252 12.1132C219.411 12.6326 220.436 13.3409 221.312 14.2165C222.183 15.0965 222.892 16.131 223.411 17.2942C223.918 18.4489 224.179 19.6765 224.179 20.9471Z" fill="#272D38"/>
<path d="M249.618 10.2546C249.485 10.1044 249.335 9.96274 249.163 9.82538C248.661 9.43048 248.146 9.08279 247.644 8.7909C247.124 8.49043 246.579 8.23718 246.017 8.04402C245.459 7.85086 244.866 7.70062 244.248 7.6019C243.634 7.50746 242.969 7.45594 242.265 7.45594C241.347 7.45594 240.471 7.59331 239.664 7.86373C238.874 8.12986 238.144 8.48185 237.501 8.91109C237.02 9.22873 236.582 9.58071 236.191 9.95845V8.99265C236.191 8.58487 236.054 8.21571 235.792 7.92812C235.509 7.61906 235.114 7.45166 234.65 7.45166H233.861C233.813 7.45166 233.77 7.45594 233.732 7.45594C233.697 7.45165 233.663 7.45166 233.624 7.45166C232.805 7.45166 232.255 7.9925 232.255 8.79948V32.966C232.255 33.8202 232.843 34.3911 233.719 34.3911H234.74C235.603 34.3911 236.187 33.8202 236.187 32.966V17.8007C236.187 16.7877 236.359 15.8606 236.689 15.0493C237.02 14.2423 237.479 13.5555 238.05 13.0018C238.625 12.4481 239.303 12.0102 240.067 11.7055C240.84 11.4007 241.673 11.2462 242.548 11.2462C242.87 11.2462 243.214 11.2934 243.557 11.3835C243.935 11.4823 244.308 11.611 244.673 11.7656C245.051 11.9287 245.416 12.1047 245.759 12.2892C246.094 12.4738 246.386 12.6498 246.618 12.8172C246.867 12.9975 247.073 13.122 247.257 13.1992C247.472 13.2894 247.687 13.3366 247.888 13.3366C248.202 13.3366 248.472 13.225 248.648 13.049C248.927 12.8086 249.193 12.5554 249.434 12.2978C249.687 12.0231 249.979 11.6454 249.979 11.2076C249.983 10.8556 249.858 10.5251 249.618 10.2546Z" fill="#272D38"/>
<path d="M0.505251 27.5275C0.445157 27.5017 15.3829 1.66118 15.3829 1.66118C16.1426 0.583771 17.7437 0 19.2761 0C21.0403 0 22.5985 0.849904 23.5815 2.1591C23.5857 2.14622 26.5819 6.67476 28.2388 9.17726C28.2989 9.2674 28.359 9.35754 28.4148 9.44339C28.6938 9.91126 28.8655 10.4521 28.8655 11.0402C28.8655 11.6154 28.6981 12.1519 28.4276 12.6155L28.2431 12.8988L27.8353 13.5298C24.0622 20.0071 19.8127 27.506 19.8685 27.5318C19.7354 27.9954 19.6625 28.4847 19.6625 28.9955C19.6625 30.3305 20.1604 31.6096 20.9631 32.6097C21.0232 32.6827 21.0747 32.7643 21.1391 32.833C21.2335 32.9918 21.2893 33.1721 21.2893 33.3695C21.2893 33.8631 20.9459 34.2752 20.4866 34.3911C20.405 34.4126 20.0574 34.4126 19.9758 34.3911H5.69482C2.71586 34.3911 0.294922 31.9745 0.294922 28.9955C0.299214 28.4804 0.372185 27.9911 0.505251 27.5275Z" fill="#3F65F0"/>
<path d="M60.0414 27.5275C60.1015 27.5017 45.1637 1.66118 45.1637 1.66118C44.404 0.583771 42.8029 0 41.2705 0C39.5063 0 37.9481 0.849904 36.9652 2.1591C36.9609 2.14622 33.9647 6.67476 32.3078 9.17726C32.2478 9.2674 32.1877 9.35754 32.1319 9.44339C31.8529 9.91126 31.6812 10.4521 31.6812 11.0402C31.6812 11.6154 31.8486 12.1519 32.1233 12.6155L32.3036 12.8988L32.7156 13.5298C36.4887 20.0071 40.7382 27.506 40.6781 27.5318C40.8069 27.9954 40.8842 28.4847 40.8842 28.9955C40.8842 30.3305 40.3862 31.6096 39.5878 32.6097C39.5277 32.6827 39.4719 32.7643 39.4118 32.833C39.3174 32.9918 39.2616 33.1721 39.2616 33.3695C39.2616 33.8631 39.6007 34.2752 40.0643 34.3911C40.1459 34.4126 40.4936 34.4126 40.5751 34.3911H54.8561C57.835 34.3911 60.2517 31.9745 60.2517 28.9955C60.2474 28.4804 60.1744 27.9911 60.0414 27.5275Z" fill="#67BFF9"/>
</svg>
