<svg width="607" height="463" viewBox="0 0 607 463" fill="none" xmlns="http://www.w3.org/2000/svg">
<path d="M487.61 460.642C490.339 460.262 491.573 458.847 492.09 457.333C492.094 457.346 492.098 457.36 492.1 457.374C492.5 458.971 491.571 460.624 489.711 461.412C487.462 462.362 485.005 462.524 483.095 462.447C481.048 462.362 479.167 461.517 478.135 460.161L478.119 460.141C480.176 461.157 483.061 461.275 487.61 460.642Z" fill="#263237"/>
<path d="M474.746 437.12H479.317C486.282 436.978 490.655 451.652 492.086 457.332C491.569 458.846 490.334 460.261 487.606 460.641C483.056 461.275 480.171 461.156 478.117 460.141C474.354 455.195 472.489 447.953 471.592 443.725C470.575 438.915 474.746 437.12 474.746 437.12Z" fill="#61C0FF"/>
<path d="M478.733 427.601L481.271 437.687C481.582 438.924 480.99 440.202 479.844 440.79C478.424 441.519 476.425 442.283 474.588 442.063C473.724 441.958 473.005 441.35 472.719 440.537L468.992 429.924L478.733 427.601Z" fill="white"/>
<g style="mix-blend-mode:multiply" opacity="0.5">
<path d="M501.078 376.45C487.499 388.186 475.349 395.086 466.047 400.293C375.321 451.089 271.612 436.448 239.547 431.445C187.815 423.371 144.147 417.675 106.628 389.252C21.3717 324.665 25.5196 189.933 90.6641 106.472C98.3874 96.5754 163.435 15.7252 267.369 4.3325C269.91 4.05346 271.808 3.89566 273.47 3.74783C289.548 2.32105 368.212 -17.4969 470.424 51.86C517.011 134.098 468.83 199.857 486.185 222.331C489.741 233.583 581.78 306.698 501.078 376.45Z" fill="#C4DFFB" fill-opacity="0.37"/>
</g>
<path d="M564.959 281.672L599.4 272.342C599.4 272.342 607.536 274.711 606.332 286.81C605.128 298.91 570.796 296.686 570.796 296.686L564.959 281.672Z" fill="#E2E2E2"/>
<path d="M258.93 148.579C193.258 164.979 154.73 208.82 135.722 213.267C116.714 217.713 40.6075 221.758 28.2029 233.274C15.7982 244.79 27.6556 252.99 11.6755 267.787C-5.98293 317.532 48.6706 332.438 48.6706 332.438L545.587 328.393C545.587 328.393 579.116 331.417 579.845 307.474C580.575 283.567 572.439 271.467 570.688 249.929C568.937 228.391 568.9 227.297 564.084 216.146C559.268 204.957 512.641 203.755 503.557 191.327C494.472 178.9 483.673 159.075 445.145 152.333C391.951 143.003 297.019 139.067 258.93 148.579Z" fill="#67BFF9" fill-opacity="0.3"/>
<path d="M582.508 306.089C581.669 333.568 534.969 328.721 534.787 328.684C534.787 328.684 497.682 300.331 548.724 301.388C564.047 300.987 579.626 292.86 579.626 292.86L582.508 306.089Z" fill="#C6C6C6"/>
<path d="M8.6478 280.068C8.6478 280.068 8.1735 287.065 21.3078 294.245C37.6163 303.137 94.2035 293.37 94.2035 293.37L100.661 329.741L47.3211 332.474C48.5616 332.802 -22.7287 328.721 8.6478 280.068Z" fill="#E2E2E2"/>
<path opacity="0.5" d="M495.128 227.371C495.128 227.371 496.734 214.871 483.599 199.564C470.465 184.258 462.803 174.163 452.697 171.575C442.591 168.988 368.71 158.747 363.821 166.619C358.969 174.491 352.73 222.706 352.73 222.706L495.128 227.371Z" fill="#61C0FF"/>
<path opacity="0.5" d="M451.386 170.226C443.104 168.987 380.241 161.699 364.006 163.776L359.81 179.921L495.203 227.334C495.203 227.334 495.86 217.057 489.074 206.925C477.727 189.906 460.032 171.32 451.386 170.226Z" fill="#61C0FF"/>
<path opacity="0.5" d="M341.748 166.583C339.705 175.912 332.153 221.358 332.153 221.358L172.351 220.629C172.351 220.629 222.736 174.382 261.446 167.056C300.192 159.731 343.061 161.663 341.748 166.583Z" fill="#61C0FF"/>
<path opacity="0.5" d="M266.921 163.63C298.48 159.257 310.045 160.095 343.1 162.974L339.926 176.203C339.926 176.203 290.708 166.546 244.848 172.122C244.848 172.122 256.632 165.052 266.921 163.63Z" fill="#61C0FF"/>
<path opacity="0.5" d="M31.8533 230.906C31.8533 230.906 57.7572 222.597 64.0689 243.079C70.0889 262.576 11.6775 267.824 11.6775 267.824C11.6775 267.824 15.9826 238.888 31.8533 230.906Z" fill="#61C0FF"/>
<path opacity="0.5" d="M503.997 205.249C503.851 205.249 503.705 205.213 503.559 205.176C497.466 203.354 492.358 196.94 486.411 189.542C477.764 178.718 467.95 166.473 451.934 163.412C421.25 157.544 374.696 153.499 374.222 153.463C373.383 153.39 372.799 152.661 372.836 151.823C372.909 150.985 373.602 150.365 374.477 150.438C374.952 150.474 421.615 154.556 452.481 160.423C469.592 163.667 480.209 176.969 488.746 187.611C494.365 194.644 499.217 200.694 504.398 202.261C505.201 202.516 505.638 203.354 505.42 204.12C505.237 204.848 504.653 205.249 503.997 205.249Z" fill="#61C0FF"/>
<path opacity="0.5" d="M551.571 222.305C551.024 222.305 550.476 222.013 550.221 221.467C547.704 216.401 536.539 214.069 525.74 211.846C521.873 211.044 517.896 210.242 514.211 209.258C513.408 209.039 512.934 208.238 513.153 207.436C513.372 206.634 514.175 206.16 514.977 206.379C518.589 207.327 522.529 208.128 526.36 208.93C538.4 211.408 549.747 213.741 552.921 220.155C553.286 220.884 552.994 221.795 552.228 222.159C552.009 222.232 551.79 222.305 551.571 222.305Z" fill="#61C0FF"/>
<path d="M503.211 360.552C521.904 341.879 521.904 311.605 503.211 292.933C484.518 274.261 454.21 274.261 435.517 292.933C416.824 311.605 416.824 341.879 435.517 360.552C454.21 379.224 484.518 379.224 503.211 360.552Z" fill="#C6C6C6"/>
<path d="M439.344 326.972C439.781 343.809 453.791 357.111 470.647 356.673C487.503 356.236 500.82 342.242 500.382 325.405C499.944 308.568 485.934 295.266 469.078 295.703C452.222 296.14 438.906 310.135 439.344 326.972Z" fill="#E2E2E2"/>
<path d="M132.043 371.414C158.376 369.093 177.84 345.888 175.517 319.584C173.193 293.28 149.962 273.838 123.629 276.159C97.2956 278.479 77.8317 301.684 80.1551 327.988C82.4784 354.293 105.709 373.735 132.043 371.414Z" fill="#C6C6C6"/>
<path d="M97.855 324.057C98.2928 340.894 112.303 354.196 129.159 353.758C146.014 353.321 159.331 339.327 158.893 322.49C158.455 305.652 144.445 292.35 127.59 292.788C110.734 293.189 97.4172 307.22 97.855 324.057Z" fill="#E2E2E2"/>
<g opacity="0.5">
<path d="M332.003 325.331C331.967 325.331 331.894 325.331 331.857 325.331C330.982 325.331 330.289 324.639 330.289 323.764C330.289 323.145 330.69 322.598 331.201 322.379C334.302 317.386 338.352 263.34 340.176 229.994C340.212 229.119 340.978 228.464 341.854 228.5C342.73 228.536 343.386 229.302 343.35 230.176C343.35 230.395 342.037 253.865 340.176 277.08C336.381 324.238 334.046 325.331 332.003 325.331Z" fill="#61C0FF"/>
</g>
<path opacity="0.5" d="M235.435 244.827C235.435 250.913 230.51 255.833 224.417 255.833H191.946C185.853 255.833 180.928 250.913 180.928 244.827V244.754C180.928 238.668 185.853 233.748 191.946 233.748H224.417C230.51 233.748 235.435 238.668 235.435 244.754V244.827Z" fill="#61C0FF"/>
<path d="M359.613 177.23C359.613 177.23 339.147 202.98 312.825 217.861C313.741 222.145 315.298 227.661 317.91 233.173C331.564 230.934 347.366 225.594 360.762 213.727L359.613 177.23Z" fill="#263237"/>
<path d="M385.136 291.357C381.134 272.366 377.131 261.371 363.729 225.375C359.51 214.048 355.682 202.586 357.533 190.642L359.612 177.228C359.612 177.228 385.657 168.425 414.527 176.858C414.527 176.858 453.916 193.951 427.162 278.363C415.103 291.84 400.992 295.681 385.136 291.357Z" fill="#263237"/>
<path d="M371.493 175.522C369.977 177.038 368.928 179.488 368.462 182.637C367.179 190.103 368.578 201.65 372.542 214.831C376.272 204.217 384.432 190.103 389.445 181.937C391.777 178.088 393.409 175.522 393.642 175.289C385.715 173.422 378.837 173.656 371.493 175.522Z" fill="#67BFF9"/>
<path d="M364.045 160.109L370.798 176.314C371.224 177.338 372.147 178.068 373.241 178.254C377.134 178.921 386.552 179.962 392.736 175.901C393.473 175.416 393.661 174.416 393.156 173.694L380.679 155.8L364.045 160.109Z" fill="white"/>
<path d="M371.024 135.312C370.74 135.579 359.054 158.503 359.054 158.503L372.3 164.89L386.608 144.806C386.608 144.806 375.771 130.847 371.024 135.312Z" fill="white"/>
<path d="M380.589 147.218L373.983 158.218C373.882 158.385 373.763 158.537 373.62 158.67C372.833 159.4 370.143 161.528 368.062 158.632C366.289 156.164 364.626 153.922 362.843 152.995C361.803 152.455 360.521 152.886 359.992 153.933C358.904 156.089 356.796 160.481 355.47 164.647C355.137 165.69 355.678 166.812 356.695 167.224C359.378 168.309 364.678 170.272 369.382 170.921C370.155 171.028 370.919 170.701 371.379 170.072C373.402 167.303 379.107 159.562 381.054 157.627C382.863 155.828 386.2 156.504 387.706 156.938C388.277 157.102 388.885 157.023 389.394 156.716C390.92 155.798 393.583 153.512 391.148 149.64C390.541 148.679 390.851 147.396 391.802 146.771C393.506 145.65 395.354 143.55 393.593 140.146C391.81 136.7 388.625 136.391 386.456 136.657C385.497 136.773 384.522 136.271 384.153 135.378C383.989 134.98 383.666 134.642 383.064 134.521C381.926 134.292 381.181 133.252 381.403 132.114C381.786 130.165 381.498 127.631 378.381 125.921C372.667 122.782 367.66 127.897 366.388 132.213C365.114 136.53 371.506 139.582 375.524 140.091C378.477 140.465 380.095 143.683 380.747 145.365C380.983 145.975 380.926 146.656 380.589 147.218Z" fill="#272D38"/>
<path d="M378.271 160.916C378.271 160.916 381.115 154.234 384.366 154.507C387.62 154.781 390.18 158.017 386.148 161.656C381.135 166.183 378.271 160.916 378.271 160.916Z" fill="white"/>
<path d="M382.569 458.724C388.86 459.266 399.777 460.149 408.383 460.527C413.556 460.755 416.534 460.248 418.25 459.563C418.248 459.757 418.242 459.939 418.234 460.107C418.193 461.012 417.458 461.736 416.542 461.788C400.279 462.694 387.346 462.102 382.741 461.821C381.788 461.764 381.221 460.731 381.709 459.919C381.954 459.514 382.25 459.118 382.569 458.724Z" fill="#263237"/>
<path d="M408.385 460.529C399.778 460.151 388.86 459.268 382.571 458.726C388.755 451.148 408.385 446.039 408.385 446.039H413.929C417.741 451.53 418.294 456.757 418.252 459.565C416.537 460.25 413.558 460.757 408.385 460.529Z" fill="#61C0FF"/>
<path d="M414.862 436.997L414.343 447.251C414.288 448.361 413.455 449.296 412.342 449.454C411.234 449.612 409.75 449.632 408.177 449.109C407.21 448.787 406.491 447.973 406.312 446.98L404.519 436.997H414.862Z" fill="white"/>
<path d="M481.025 430.327C477.866 433.126 467.593 433.496 467.593 433.496C430.583 344.769 415.154 320.343 415.154 320.343C420.498 353.834 416.305 439.796 416.305 439.796C410.198 442.488 402.324 439.796 402.324 439.796C401.829 384.969 394.101 326.055 384.135 288.359C409.148 287.797 422.743 282.35 427.086 278.92C447.935 312.498 481.025 430.327 481.025 430.327Z" fill="#263237"/>
<path d="M422.157 240.62C424.741 251.286 424.81 261.722 424.416 265.52C424.267 266.953 423.114 268.072 421.677 268.172C420.043 268.287 417.82 268.436 415.832 268.55C413.649 268.677 411.223 267.298 409.603 266.146C408.774 265.558 407.704 266.474 408.166 267.377C408.963 268.933 410.346 270.16 411.719 271.201C412.545 271.828 415.289 272.94 415.099 274.175C415.038 274.565 414.804 274.904 414.55 275.207C413.025 277.035 410.716 278.011 408.44 278.71C408.154 278.797 407.851 278.89 407.651 279.112C407.593 280.584 412.125 282.217 413.296 282.605C415.048 283.187 416.906 283.432 418.747 283.238C423.306 282.759 427.517 279.614 429.974 275.824C436.538 265.691 439.932 253.455 441.173 244.097C435.066 238.001 425.846 239.547 422.157 240.62Z" fill="white"/>
<path d="M441.174 245.063C446.044 208.313 417.692 180.053 417.692 180.053L400.822 199.697C413.63 215.644 419.717 230.255 422.499 241.732C426.186 240.66 435.067 238.965 441.174 245.063Z" fill="#263237"/>
<path d="M193.629 459.42C193.631 459.24 193.619 459.06 193.573 458.876C190.861 448.133 177.395 441.439 177.395 441.439L172.059 441.856C168.992 451.327 169.386 457.134 169.877 459.721C169.891 459.794 169.913 459.861 169.933 459.933C174.336 460.327 183.395 460.582 193.629 459.42Z" fill="#263237"/>
<path d="M169.93 459.933C170.168 460.797 170.806 461.468 171.625 461.641C177.886 462.957 187.839 461.898 192.015 461.352C192.937 461.231 193.611 460.38 193.626 459.418C183.392 460.582 174.333 460.326 169.93 459.933Z" fill="#263237"/>
<path d="M169.912 433.917L172.173 444.785C172.339 445.581 172.951 446.179 173.692 446.248C174.6 446.333 175.894 446.383 177.194 446.193C178.359 446.022 179.171 444.839 178.965 443.568L177.394 433.919H169.912V433.917Z" fill="#5956E9"/>
<path d="M216.737 459.796C210.844 459.632 207.795 458.937 206.22 458.294C206.216 458.88 206.22 459.475 206.238 460.091C206.257 460.75 206.747 461.277 207.347 461.273L239.704 461.065C240.736 461.059 241.341 459.861 240.893 458.915C236.652 459.268 225.848 460.051 216.737 459.796Z" fill="#263237"/>
<path d="M240.895 458.917C240.856 458.834 240.822 458.751 240.766 458.673C237.909 454.685 230.631 446.743 216.25 443.299L209.351 443.081C209.351 443.081 206.28 448.415 206.22 458.295C207.795 458.939 210.845 459.631 216.738 459.798C225.848 460.051 236.653 459.267 240.895 458.917Z" fill="#263237"/>
<path d="M207.765 432.958C207.874 433.466 209.308 441.197 209.865 444.196C209.998 444.908 210.553 445.431 211.214 445.468C212.395 445.534 214.301 445.541 215.94 445.098C216.824 444.859 217.418 443.958 217.355 442.959L216.582 430.727L207.765 432.958Z" fill="#5956E9"/>
<path d="M202.536 290.184C202.536 290.184 212.027 355.326 218.875 432.847C219.002 434.29 217.851 435.547 216.432 435.846C214.34 436.285 211.264 436.807 208.718 436.736C207.359 436.699 206.224 435.691 205.994 434.353C203.66 420.685 187.012 347.332 182.641 331.188C182.641 331.188 177.622 399.766 179.227 435.345C179.266 436.229 178.618 436.997 177.737 437.098C176.401 437.253 174.263 437.37 171.543 437.081C170.51 436.972 169.678 436.192 169.53 435.165C167.867 423.598 158.301 354.743 158.709 305.143C158.733 302.346 161.994 279.365 161.994 279.365L202.536 290.184Z" fill="#263237"/>
<path d="M160.568 293.938C159.593 293.592 158.912 292.709 158.806 291.68C157.544 279.448 151.434 203.612 190.012 172.417C190.012 172.417 192.225 166.636 210.409 180.849C228.594 195.062 218.858 209.959 214.505 230.508C209.236 255.373 199.993 275.697 204.082 290.999C204.364 292.054 203.809 293.164 202.782 293.542C188.655 298.74 174.583 298.912 160.568 293.938Z" fill="#5956E9"/>
<path d="M205.059 149.693C205.047 150.772 189.641 172.629 189.641 172.629C189.641 172.629 192.405 178.068 205.607 182.485L217.003 159.083L205.059 149.693Z" fill="white"/>
<path d="M217.193 137.169C217.193 137.169 222.674 149.747 223.042 156.348C223.411 162.949 224.833 167.234 217.193 168.562C209.551 169.892 203.113 166.088 199.626 159.513C199.626 159.513 194.161 149.379 195.387 145.231C196.614 141.082 217.193 137.169 217.193 137.169Z" fill="white"/>
<path d="M202.234 154.786L202.67 154.594C203.223 154.351 203.461 153.692 203.184 153.155C202.106 151.075 200.005 146.309 202.72 145.199C206.217 143.766 220.071 140.944 223.059 136.033C225.932 131.315 223.386 125.223 219.562 123.489C219.306 123.372 219.003 123.465 218.873 123.712L218.554 124.314C218.336 124.726 217.725 124.664 217.596 124.215C217.472 123.786 216.899 123.702 216.661 124.081C215.742 125.549 213.261 127.932 206.629 129.153C197.202 130.891 190.97 134.703 190.813 141.209C190.804 141.622 190.364 141.852 190.009 141.636C189.314 141.213 188.2 141.013 186.71 142.264C184.12 144.439 185.18 150.08 190.855 154.719C191.125 154.939 191.123 155.36 190.831 155.55C189.803 156.219 188.269 157.811 192.242 159.934C196.354 162.129 199.423 161.949 200.606 161.755C200.899 161.708 201.089 161.423 201.026 161.132L199.764 155.412C199.692 155.087 199.938 154.782 200.271 154.782H202.234V154.786Z" fill="#263237"/>
<path d="M202.474 155.994C202.474 155.994 200.384 147.96 196.778 150.213C193.172 152.465 198.648 159.214 201.549 159.515L202.474 155.994Z" fill="white"/>
<path d="M216.259 187.442L217.321 215.935C220.339 216.972 223.21 217.778 225.945 218.382C227.654 212.879 231.423 206.128 234.506 201.107C223.174 197.107 216.259 187.442 216.259 187.442Z" fill="#5956E9"/>
<path d="M272.84 186.959C257.294 203.725 244.711 204.713 234.507 201.109C231.422 206.13 227.655 212.881 225.945 218.384C267.46 227.526 277.237 189.404 277.237 189.404L272.84 186.959Z" fill="white"/>
<path d="M275.994 185.177C275.994 185.177 277.785 183.255 281.098 183.859C284.413 184.463 287.363 185.613 289.428 183.859C291.492 182.105 292.22 184.459 292.22 184.459L286.036 189.153L275.994 185.177Z" fill="white"/>
<path d="M272.295 188.461C272.295 188.461 273.522 183.337 277.219 184.04C280.917 184.742 289.312 189.303 291.476 188.461C293.639 187.622 296.405 185.611 297.824 186.322L295.324 189.427C295.324 189.427 301.751 185.724 302.857 188L292.163 194.011C292.163 194.009 276.518 192.446 272.295 188.461Z" fill="white"/>
<path d="M264.769 238.759C264.85 239.337 265.109 239.887 265.535 240.329L267.531 242.389C269.05 243.959 271.41 244.182 273.154 243.109L265.627 239.137C265.349 238.991 265.062 238.866 264.769 238.759Z" fill="white"/>
<path d="M274.327 242.054C275.173 240.966 275.849 239.499 275.994 237.538C275.994 237.538 268.252 232.465 267.18 233.635C266.8 234.05 265.908 235.465 265.078 237.009C264.854 237.427 264.743 237.88 264.739 238.329C265.106 238.454 265.464 238.605 265.809 238.787L273.521 242.854C273.814 242.63 274.088 242.363 274.327 242.054Z" fill="white"/>
<path d="M317.909 233.172C315.296 227.662 313.738 222.144 312.825 217.861C303.682 223.03 293.835 226.892 283.89 227.901C283.89 227.901 281.233 220.915 278.13 221.556C275.538 222.09 272.744 223.838 271.894 224.4L271.966 224.406L270.612 226.654L288.289 233.801L288.275 233.948C288.273 233.972 288.269 233.997 288.267 234.021C293.232 234.577 304.538 235.363 317.909 233.172Z" fill="white"/>
<path d="M285.563 233.663C285.563 233.663 286.274 233.786 287.58 233.944L270.034 226.849L270.395 226.249L266.648 231.312C266.646 231.312 280.641 236.82 285.563 233.663Z" fill="white"/>
<path d="M199.005 224.734C199.005 224.734 228.233 249.185 259.793 238.515C261.751 237.854 263.891 237.996 265.718 238.96L274.791 243.748C278.599 245.757 283.315 244.439 285.526 240.746C286.786 238.64 287.862 236.233 288.076 233.929L270.322 226.75L271.632 224.575C271.632 224.575 262.963 223.841 260.695 230.048C260.695 230.048 244.183 236.908 216.34 206.315C216.338 206.315 203.703 217.046 199.005 224.734Z" fill="white"/>
</svg>
