<svg width="121" height="70" viewBox="0 0 121 70" fill="none" xmlns="http://www.w3.org/2000/svg">
<path d="M0.423435 55.4184C0.302453 55.3666 30.3751 3.34429 30.3751 3.34429C31.9047 1.17525 35.128 0 38.213 0C41.7647 0 44.9016 1.71103 46.8805 4.34671C46.8892 4.32079 52.921 13.4377 56.2567 18.4757C56.3776 18.6572 56.4986 18.8386 56.611 19.0115C57.1727 19.9534 57.5183 21.0422 57.5183 22.2261C57.5183 23.3841 57.1813 24.4643 56.6369 25.3976L56.2653 25.9679L55.4443 27.2383C47.8484 40.2784 39.2932 55.3752 39.4056 55.4271C39.1377 56.3604 38.9908 57.3455 38.9908 58.3739C38.9908 61.0614 39.9932 63.6366 41.6092 65.65C41.7302 65.797 41.8339 65.9612 41.9635 66.0994C42.1536 66.4192 42.2659 66.7821 42.2659 67.1796C42.2659 68.1734 41.5746 69.003 40.65 69.2363C40.4858 69.2795 39.7858 69.2795 39.6216 69.2363H10.8711C4.87385 69.2363 0 64.3711 0 58.3739C0.00864158 57.3369 0.155547 56.3517 0.423435 55.4184Z" fill="#3F65F0"/>
<path d="M120.282 55.4185C120.403 55.3666 90.3299 3.34436 90.3299 3.34436C88.8004 1.17533 85.5771 7.62939e-05 82.492 7.62939e-05C78.9404 7.62939e-05 75.8035 1.71111 73.8245 4.34679C73.8159 4.32086 67.7841 13.4377 64.4484 18.4758C64.3274 18.6572 64.2065 18.8387 64.0941 19.0115C63.5324 19.9535 63.1868 21.0423 63.1868 22.2262C63.1868 23.3842 63.5238 24.4644 64.0768 25.3977L64.4398 25.968L65.2694 27.2383C72.8653 40.2785 81.4205 55.3753 81.2995 55.4272C81.5587 56.3604 81.7143 57.3456 81.7143 58.3739C81.7143 61.0615 80.7119 63.6366 79.1045 65.6501C78.9836 65.797 78.8712 65.9612 78.7502 66.0995C78.5601 66.4192 78.4478 66.7822 78.4478 67.1797C78.4478 68.1735 79.1305 69.0031 80.0638 69.2364C80.228 69.2796 80.9279 69.2796 81.0921 69.2364H109.843C115.84 69.2364 120.705 64.3712 120.705 58.3739C120.696 57.3369 120.55 56.3518 120.282 55.4185Z" fill="#67BFF9"/>
</svg>
