<svg width="50" height="46" viewBox="0 0 50 46" fill="none" xmlns="http://www.w3.org/2000/svg">
<path d="M0 4.25022C0 2.05477 1.78182 0.272949 3.97727 0.272949H46.0227C48.2182 0.272949 50 2.05477 50 4.25022V13.3411C50 13.7932 49.8204 14.2268 49.5008 14.5464C49.1811 14.8661 48.7475 15.0457 48.2955 15.0457C47.8434 15.0457 47.4098 14.8661 47.0902 14.5464C46.7705 14.2268 46.5909 13.7932 46.5909 13.3411V4.25022C46.5909 4.09953 46.531 3.95501 46.4245 3.84846C46.3179 3.7419 46.1734 3.68204 46.0227 3.68204H3.97727C3.82658 3.68204 3.68206 3.7419 3.57551 3.84846C3.46895 3.95501 3.40909 4.09953 3.40909 4.25022V30.3866C3.40909 30.7002 3.66364 30.9548 3.97727 30.9548H24.4318C24.8839 30.9548 25.3174 31.1344 25.6371 31.454C25.9568 31.7737 26.1364 32.2072 26.1364 32.6593C26.1364 33.1114 25.9568 33.5449 25.6371 33.8646C25.3174 34.1843 24.8839 34.3639 24.4318 34.3639H21.5068C21.2205 37.2411 20.225 39.9207 18.7273 42.3184H24.4318C24.8839 42.3184 25.3174 42.498 25.6371 42.8177C25.9568 43.1373 26.1364 43.5709 26.1364 44.0229C26.1364 44.475 25.9568 44.9086 25.6371 45.2282C25.3174 45.5479 24.8839 45.7275 24.4318 45.7275H15.3409C15.0137 45.7274 14.6934 45.6331 14.4184 45.456C14.1433 45.2788 13.925 45.0262 13.7896 44.7283C13.6542 44.4304 13.6074 44.0999 13.6548 43.7761C13.7022 43.4524 13.8417 43.1491 14.0568 42.9025C16.2477 40.3911 17.6886 37.4889 18.0773 34.3639H3.97727C2.92243 34.3639 1.9108 33.9448 1.16492 33.1989C0.419033 32.4531 0 31.4414 0 30.3866V4.25022Z" fill="#5956E9"/>
<path d="M29.5454 22.4319C29.5454 20.2341 31.325 18.4546 33.5227 18.4546H46.0227C48.2181 18.4546 50 20.2341 50 22.4319V41.75C50 42.8049 49.5809 43.8165 48.835 44.5624C48.0892 45.3083 47.0775 45.7273 46.0227 45.7273H33.5227C32.4678 45.7273 31.4562 45.3083 30.7103 44.5624C29.9644 43.8165 29.5454 42.8049 29.5454 41.75V22.4319ZM33.5227 21.8637C33.372 21.8637 33.2275 21.9235 33.1209 22.0301C33.0144 22.1367 32.9545 22.2812 32.9545 22.4319V41.75C32.9545 42.0637 33.209 42.3182 33.5227 42.3182H46.0227C46.1734 42.3182 46.3179 42.2584 46.4244 42.1518C46.531 42.0453 46.5909 41.9007 46.5909 41.75V22.4319C46.5909 22.2812 46.531 22.1367 46.4244 22.0301C46.3179 21.9235 46.1734 21.8637 46.0227 21.8637H33.5227Z" fill="#5956E9"/>
</svg>
