<svg width="56" height="40" viewBox="0 0 56 40" fill="none" xmlns="http://www.w3.org/2000/svg">
<path d="M35.5 0C40.8043 0 45.8914 2.10714 49.6421 5.85786C53.3929 9.60859 55.5 14.6957 55.5 20C55.5 25.3043 53.3929 30.3914 49.6421 34.1421C45.8914 37.8929 40.8043 40 35.5 40C30.1957 40 25.1086 37.8929 21.3579 34.1421C17.6071 30.3914 15.5 25.3043 15.5 20C15.5 14.6957 17.6071 9.60859 21.3579 5.85786C25.1086 2.10714 30.1957 0 35.5 0ZM35.5 5C31.5218 5 27.7064 6.58035 24.8934 9.3934C22.0804 12.2064 20.5 16.0218 20.5 20C20.5 23.9782 22.0804 27.7936 24.8934 30.6066C27.7064 33.4197 31.5218 35 35.5 35C39.4782 35 43.2936 33.4197 46.1066 30.6066C48.9197 27.7936 50.5 23.9782 50.5 20C50.5 16.0218 48.9197 12.2064 46.1066 9.3934C43.2936 6.58035 39.4782 5 35.5 5ZM33 10H36.75V19.45L42.575 25.275L39.925 27.925L33 21V10ZM3 35C2.33696 35 1.70107 34.7366 1.23223 34.2678C0.763392 33.7989 0.5 33.163 0.5 32.5C0.5 31.837 0.763392 31.2011 1.23223 30.7322C1.70107 30.2634 2.33696 30 3 30H12.575C13.35 31.775 14.35 33.45 15.5 35H3ZM5.5 22.5C4.83696 22.5 4.20107 22.2366 3.73223 21.7678C3.26339 21.2989 3 20.663 3 20C3 19.337 3.26339 18.7011 3.73223 18.2322C4.20107 17.7634 4.83696 17.5 5.5 17.5H10.625L10.5 20L10.625 22.5H5.5ZM8 10C7.33696 10 6.70107 9.73661 6.23223 9.26777C5.76339 8.79893 5.5 8.16304 5.5 7.5C5.5 6.83696 5.76339 6.20107 6.23223 5.73223C6.70107 5.26339 7.33696 5 8 5H15.5C14.35 6.55 13.35 8.225 12.575 10H8Z" fill="#5956E9"/>
</svg>
