<svg width="88" height="54" viewBox="0 0 88 54" fill="none" xmlns="http://www.w3.org/2000/svg">
<path d="M83.7045 53.5633H4.29552C1.92581 53.5633 0 51.6375 0 49.2678V4.86485C0 2.49515 1.92581 0.569336 4.29552 0.569336H83.7045C86.0742 0.569336 88 2.49515 88 4.86485V49.2678C88 51.6375 86.0742 53.5633 83.7045 53.5633ZM4.29552 1.69614C2.54726 1.69614 1.12681 3.1166 1.12681 4.86485V49.2678C1.12681 51.016 2.54726 52.4365 4.29552 52.4365H83.7045C85.4528 52.4365 86.8732 51.016 86.8732 49.2678V4.86485C86.8732 3.1166 85.4528 1.69614 83.7045 1.69614H4.29552Z" fill="#5956E9"/>
<path d="M33.6652 46.3115H8.77305C7.74869 46.3115 6.92236 45.4784 6.92236 44.4609V9.68016C6.92236 8.65579 7.75552 7.82947 8.77305 7.82947H33.6652C34.6896 7.82947 35.5159 8.66262 35.5159 9.68016V44.454C35.5159 45.4784 34.6827 46.3115 33.6652 46.3115ZM8.77305 8.94944C8.37014 8.94944 8.04234 9.27724 8.04234 9.68016V44.454C8.04234 44.8569 8.37014 45.1847 8.77305 45.1847H33.6652C34.0681 45.1847 34.3959 44.8569 34.3959 44.454V9.68016C34.3959 9.27724 34.0681 8.94944 33.6652 8.94944H8.77305Z" fill="#5956E9"/>
<path d="M21.2207 45.7505H8.72337C8.04046 45.7505 7.4873 45.1974 7.4873 44.5145V35.8893C7.4873 35.8893 14.5076 35.582 15.6822 34.0864C16.8637 32.5977 15.5593 30.2621 15.5593 30.2621C15.1359 29.7294 15.0266 25.9871 15.0266 25.9871C15.0266 25.9871 15.0267 25.9871 14.6101 25.8778C14.1935 25.7685 13.6472 22.6681 13.6472 21.4935C13.6472 20.3189 14.6101 19.8955 14.6101 19.8955C14.6101 19.8955 13.5516 12.3152 21.2275 12.3152C28.9034 12.3152 27.8449 19.8955 27.8449 19.8955C27.8449 19.8955 28.8078 20.3189 28.8078 21.4935C28.8078 22.6681 28.2615 25.7685 27.8449 25.8778C27.4283 25.9871 27.4283 25.9871 27.4283 25.9871C27.4283 25.9871 27.3191 29.7294 26.8957 30.2621C26.8957 30.2621 25.5913 32.5977 26.7727 34.0864C27.9542 35.5752 34.9677 35.8893 34.9677 35.8893V44.5145C34.9677 45.1974 34.4145 45.7505 33.7316 45.7505H21.2207Z" fill="#5956E9"/>
<path d="M78.73 45.9277H61.664C60.9469 45.9277 60.3665 45.3472 60.3665 44.6302C60.3665 43.9131 60.9469 43.3326 61.664 43.3326H78.73C79.447 43.3326 80.0275 43.9131 80.0275 44.6302C80.0275 45.3472 79.447 45.9277 78.73 45.9277Z" fill="#5956E9"/>
<path d="M78.7297 10.8062H43.3481C42.631 10.8062 42.0505 10.2258 42.0505 9.50872C42.0505 8.79166 42.631 8.21118 43.3481 8.21118H78.7297C79.4468 8.21118 80.0273 8.79166 80.0273 9.50872C80.0273 10.2258 79.4468 10.8062 78.7297 10.8062Z" fill="#5956E9"/>
<path d="M63.644 19.5886H43.3478C42.6308 19.5886 42.0503 19.0081 42.0503 18.2911C42.0503 17.574 42.6308 16.9935 43.3478 16.9935H63.644C64.361 16.9935 64.9415 17.574 64.9415 18.2911C64.9415 19.0081 64.361 19.5886 63.644 19.5886Z" fill="#5956E9"/>
<path d="M57.1768 28.3713H43.3478C42.6308 28.3713 42.0503 27.7908 42.0503 27.0738C42.0503 26.3567 42.6308 25.7762 43.3478 25.7762H57.1836C57.9007 25.7762 58.4811 26.3567 58.4811 27.0738C58.4811 27.784 57.9007 28.3713 57.1768 28.3713Z" fill="#5956E9"/>
<path d="M63.644 37.1463H43.3478C42.6308 37.1463 42.0503 36.5659 42.0503 35.8488C42.0503 35.1317 42.6308 34.5513 43.3478 34.5513H63.644C64.361 34.5513 64.9415 35.1317 64.9415 35.8488C64.9415 36.5659 64.361 37.1463 63.644 37.1463Z" fill="#5956E9"/>
</svg>
