<svg width="60" height="60" viewBox="0 0 60 60" fill="none" xmlns="http://www.w3.org/2000/svg">
<path d="M30 5.5L9 12.5V33.5C9 45.0992 18.4008 54.5 30 54.5C41.5992 54.5 51 45.0992 51 33.5V12.5L30 5.5ZM47.0625 33.5C47.0625 42.9227 39.4227 50.5625 30 50.5625C20.5773 50.5625 12.9375 42.9227 12.9375 33.5V15.4531L30 9.4375L47.0625 15.4531V33.5Z" fill="#5956E9"/>
<path d="M22.6933 27.982C22.5108 27.7987 22.2939 27.6533 22.055 27.554C21.8162 27.4548 21.5601 27.4037 21.3015 27.4037C21.0428 27.4037 20.7867 27.4548 20.5479 27.554C20.309 27.6533 20.0921 27.7987 19.9097 27.982C19.7264 28.1645 19.5809 28.3814 19.4816 28.6202C19.3824 28.8591 19.3313 29.1152 19.3313 29.3738C19.3313 29.6325 19.3824 29.8886 19.4816 30.1274C19.5809 30.3663 19.7264 30.5832 19.9097 30.7656L26.9862 37.8422L27.1011 37.957C27.2737 38.13 27.4787 38.2672 27.7044 38.3608C27.93 38.4544 28.172 38.5025 28.4163 38.5025C28.6606 38.5025 28.9026 38.4544 29.1282 38.3608C29.3539 38.2672 29.5589 38.13 29.7315 37.957L41.9542 25.7344C42.1271 25.5618 42.2643 25.3568 42.3579 25.1311C42.4515 24.9054 42.4997 24.6635 42.4997 24.4191C42.4997 24.1748 42.4515 23.9329 42.3579 23.7072C42.2643 23.4815 42.1271 23.2765 41.9542 23.1039L41.8011 22.9508C41.6285 22.7779 41.4235 22.6407 41.1978 22.5471C40.9721 22.4535 40.7302 22.4053 40.4858 22.4053C40.2415 22.4053 39.9996 22.4535 39.7739 22.5471C39.5482 22.6407 39.3432 22.7779 39.1706 22.9508L28.4136 33.7023L22.6933 27.982Z" fill="#5956E9"/>
</svg>
